<?xml version="1.0" encoding="UTF-8"?>
<!DOCTYPE svg PUBLIC "-//W3C//DTD SVG 1.1//EN" "http://www.w3.org/Graphics/SVG/1.1/DTD/svg11.dtd">
<!-- Creator: CorelDRAW 2020 (64-Bit Evaluation Version) -->
<svg xmlns="http://www.w3.org/2000/svg" xml:space="preserve" width="5.91976in" height="1.26184in" version="1.1" style="shape-rendering:geometricPrecision; text-rendering:geometricPrecision; image-rendering:optimizeQuality; fill-rule:evenodd; clip-rule:evenodd"
viewBox="0 0 3610.74 926.09"
 xmlns:xlink="http://www.w3.org/1999/xlink"
 xmlns:xodm="http://www.corel.com/coreldraw/odm/2003">
 <defs>
  <style type="text/css">
   <![CDATA[
    .fil3 {fill:#FFF212}
    .fil2 {fill:#F58634}
    .fil4 {fill:#00A859}
    .fil0 {fill:#34437A}
    .fil1 {fill:aqua;fill-rule:nonzero}
   ]]>
  </style>
 </defs>
 <g id="Layer_x0020_1">
  <metadata id="CorelCorpID_0Corel-Layer"/>
  <g id="_1751981082160">
   <rect class="fil0" width="3310.74" height="826.09 "/>
   <path class="fil1" d="M114.4 593.13l0 -78.84 12 0 0 11.19c5.77,-8.58 14.13,-12.86 25.04,-12.86 4.76,0 9.11,0.86 13.09,2.56 3.97,1.7 6.96,3.95 8.93,6.71 1.98,2.76 3.37,6.05 4.15,9.85 0.48,2.48 0.74,6.81 0.74,12.99l0 48.41 -13.37 0 0 -47.9c0,-5.44 -0.51,-9.52 -1.54,-12.2 -1.04,-2.68 -2.89,-4.84 -5.52,-6.46 -2.64,-1.59 -5.75,-2.41 -9.29,-2.41 -5.67,0 -10.56,1.8 -14.68,5.42 -4.13,3.6 -6.18,10.46 -6.18,20.53l0 43.02 -13.37 0z"/>
   <path id="1" class="fil1" d="M198.89 623.36l0 -109.07 12.15 0 0 10.36c2.86,-4 6.1,-7.01 9.72,-9.01 3.59,-2 7.97,-3.01 13.12,-3.01 6.74,0 12.66,1.72 17.8,5.19 5.14,3.44 9.01,8.33 11.64,14.61 2.61,6.3 3.92,13.19 3.92,20.71 0,8.03 -1.44,15.27 -4.33,21.72 -2.89,6.43 -7.09,11.37 -12.61,14.81 -5.49,3.42 -11.29,5.14 -17.37,5.14 -4.46,0 -8.46,-0.94 -11.98,-2.81 -3.54,-1.88 -6.43,-4.23 -8.71,-7.09l0 38.46 -13.37 0zm12.15 -69.17c0,10.1 2.05,17.57 6.13,22.4 4.1,4.84 9.06,7.27 14.89,7.27 5.92,0 10.99,-2.51 15.19,-7.52 4.23,-5.01 6.33,-12.76 6.33,-23.27 0,-10.03 -2.05,-17.52 -6.18,-22.51 -4.13,-4.99 -9.04,-7.47 -14.76,-7.47 -5.67,0 -10.68,2.66 -15.04,7.95 -4.38,5.32 -6.56,13.01 -6.56,23.14z"/>
   <path id="2" class="fil1" d="M283.37 593.13l0 -78.84 12 0 0 11.14c2.46,-3.85 5.75,-6.96 9.85,-9.29 4.1,-2.35 8.76,-3.52 14,-3.52 5.82,0 10.61,1.21 14.33,3.62 3.72,2.43 6.35,5.8 7.87,10.15 6.28,-9.19 14.41,-13.77 24.43,-13.77 7.85,0 13.9,2.15 18.1,6.48 4.23,4.33 6.35,10.99 6.35,19.97l0 54.05 -13.37 0 0 -49.62c0,-5.32 -0.46,-9.16 -1.32,-11.52 -0.86,-2.35 -2.43,-4.23 -4.73,-5.67 -2.28,-1.44 -4.96,-2.15 -8.03,-2.15 -5.57,0 -10.18,1.85 -13.85,5.52 -3.67,3.7 -5.5,9.6 -5.5,17.7l0 45.75 -13.37 0 0 -51.17c0,-5.92 -1.09,-10.38 -3.27,-13.34 -2.18,-2.96 -5.75,-4.46 -10.69,-4.46 -3.75,0 -7.22,0.99 -10.4,2.96 -3.19,1.98 -5.49,4.86 -6.94,8.69 -1.42,3.8 -2.13,9.29 -2.13,16.46l0 40.86 -13.37 0z"/>
   <path id="3" class="fil1" d="M452.11 499.56l0 -15.19 13.37 0 0 15.19 -13.37 0zm0 93.57l0 -78.84 13.37 0 0 78.84 -13.37 0z"/>
   <path id="4" class="fil1" d="M485.86 593.13l0 -78.84 12 0 0 11.19c5.77,-8.58 14.13,-12.86 25.04,-12.86 4.76,0 9.11,0.86 13.09,2.56 3.97,1.7 6.96,3.95 8.93,6.71 1.98,2.76 3.37,6.05 4.15,9.85 0.48,2.48 0.74,6.81 0.74,12.99l0 48.41 -13.37 0 0 -47.9c0,-5.44 -0.51,-9.52 -1.54,-12.2 -1.04,-2.68 -2.89,-4.84 -5.52,-6.46 -2.64,-1.59 -5.75,-2.41 -9.29,-2.41 -5.67,0 -10.56,1.8 -14.68,5.42 -4.13,3.6 -6.18,10.46 -6.18,20.53l0 43.02 -13.37 0z"/>
   <path id="5" class="fil1" d="M565.03 569.58l13.21 -2.13c0.74,5.29 2.81,9.34 6.2,12.18 3.39,2.81 8.15,4.23 14.23,4.23 6.15,0 10.71,-1.24 13.7,-3.75 2.96,-2.48 4.46,-5.42 4.46,-8.78 0,-3.01 -1.34,-5.39 -4,-7.11 -1.87,-1.19 -6.43,-2.68 -13.67,-4.53 -9.77,-2.46 -16.53,-4.58 -20.33,-6.38 -3.77,-1.82 -6.63,-4.3 -8.58,-7.49 -1.95,-3.16 -2.94,-6.68 -2.94,-10.53 0,-3.52 0.81,-6.76 2.41,-9.75 1.62,-2.98 3.8,-5.47 6.56,-7.44 2.08,-1.52 4.91,-2.81 8.48,-3.87 3.6,-1.06 7.42,-1.59 11.52,-1.59 6.18,0 11.6,0.89 16.25,2.68 4.68,1.77 8.13,4.2 10.36,7.24 2.2,3.06 3.75,7.14 4.58,12.25l-13.06 1.82c-0.58,-4.1 -2.31,-7.32 -5.14,-9.62 -2.83,-2.31 -6.84,-3.44 -12.03,-3.44 -6.1,0 -10.48,1.01 -13.09,3.04 -2.61,2.03 -3.92,4.41 -3.92,7.12 0,1.72 0.53,3.29 1.62,4.68 1.09,1.42 2.79,2.61 5.11,3.54 1.34,0.51 5.24,1.65 11.77,3.42 9.42,2.51 16,4.58 19.75,6.18 3.75,1.59 6.68,3.95 8.81,6.99 2.15,3.07 3.22,6.86 3.22,11.42 0,4.43 -1.29,8.61 -3.9,12.53 -2.61,3.92 -6.35,6.96 -11.24,9.12 -4.91,2.15 -10.46,3.21 -16.63,3.21 -10.23,0 -18.05,-2.13 -23.42,-6.35 -5.37,-4.25 -8.78,-10.53 -10.28,-18.86z"/>
   <path id="6" class="fil1" d="M675.31 581.21l1.82 11.8c-3.75,0.79 -7.11,1.19 -10.05,1.19 -4.83,0 -8.58,-0.76 -11.27,-2.3 -2.66,-1.55 -4.53,-3.55 -5.62,-6.05 -1.09,-2.51 -1.62,-7.77 -1.62,-15.8l0 -45.42 -9.87 0 0 -10.33 9.87 0 0 -19.5 13.37 -8.02 0 27.52 13.37 0 0 10.33 -13.37 0 0 46.18c0,3.82 0.23,6.28 0.71,7.37 0.46,1.09 1.22,1.95 2.28,2.61 1.06,0.63 2.58,0.96 4.56,0.96 1.47,0 3.42,-0.18 5.82,-0.53z"/>
   <path id="7" class="fil1" d="M740 583.26c-4.96,4.23 -9.75,7.19 -14.33,8.94 -4.58,1.75 -9.49,2.61 -14.76,2.61 -8.66,0 -15.32,-2.1 -19.97,-6.33 -4.66,-4.2 -6.99,-9.6 -6.99,-16.15 0,-3.85 0.88,-7.37 2.63,-10.56 1.77,-3.19 4.08,-5.72 6.91,-7.65 2.86,-1.92 6.05,-3.39 9.62,-4.38 2.64,-0.68 6.61,-1.34 11.9,-2 10.78,-1.27 18.76,-2.81 23.85,-4.58 0.05,-1.82 0.08,-2.99 0.08,-3.47 0,-5.42 -1.27,-9.24 -3.8,-11.47 -3.42,-3.01 -8.51,-4.5 -15.24,-4.5 -6.3,0 -10.96,1.11 -13.95,3.31 -3.01,2.2 -5.22,6.1 -6.66,11.72l-13.06 -1.82c1.19,-5.59 3.14,-10.12 5.87,-13.57 2.73,-3.44 6.68,-6.08 11.85,-7.95 5.14,-1.85 11.14,-2.79 17.92,-2.79 6.74,0 12.23,0.78 16.46,2.38 4.2,1.59 7.32,3.57 9.29,5.98 1.97,2.41 3.37,5.44 4.18,9.12 0.43,2.28 0.66,6.38 0.66,12.28l0 17.72c0,12.38 0.28,20.2 0.84,23.52 0.53,3.32 1.64,6.48 3.27,9.52l-13.98 0c-1.34,-2.81 -2.2,-6.1 -2.58,-9.87zm-1.06 -29.62c-4.86,1.98 -12.15,3.65 -21.88,5.01 -5.52,0.79 -9.42,1.67 -11.7,2.66 -2.28,0.99 -4.03,2.43 -5.26,4.31 -1.24,1.9 -1.88,4 -1.88,6.33 0,3.52 1.34,6.48 4.05,8.84 2.71,2.35 6.66,3.55 11.85,3.55 5.14,0 9.72,-1.12 13.75,-3.37 4,-2.23 6.96,-5.29 8.84,-9.16 1.44,-3.01 2.15,-7.44 2.15,-13.29l0.08 -4.86z"/>
   <polygon id="8" class="fil1" points="772.68,593.13 772.68,484.36 786.05,484.36 786.05,593.13 "/>
   <polygon id="9" class="fil1" points="806.43,593.13 806.43,484.36 819.8,484.36 819.8,593.13 "/>
   <polygon id="10" class="fil1" points="877.37,560.47 877.37,547.1 918.69,547.1 918.69,560.47 "/>
   <path id="11" class="fil1" d="M930.82 599.66l12.91 1.82c0.53,4 2.05,6.91 4.53,8.76 3.32,2.46 7.85,3.7 13.59,3.7 6.18,0 10.96,-1.24 14.33,-3.7 3.37,-2.46 5.65,-5.92 6.84,-10.36 0.68,-2.71 1.01,-8.41 0.96,-17.09 -5.85,6.89 -13.12,10.33 -21.82,10.33 -10.84,0 -19.24,-3.9 -25.16,-11.72 -5.95,-7.8 -8.91,-17.16 -8.91,-28.08 0,-7.52 1.37,-14.46 4.07,-20.81 2.71,-6.35 6.66,-11.24 11.82,-14.71 5.17,-3.47 11.24,-5.19 18.23,-5.19 9.29,0 16.96,3.8 22.99,11.39l0 -9.72 12.3 0 0 68.08c0,12.28 -1.24,20.96 -3.75,26.08 -2.48,5.11 -6.46,9.17 -11.85,12.13 -5.42,2.96 -12.08,4.46 -19.98,4.46 -9.39,0 -16.96,-2.1 -22.73,-6.33 -5.8,-4.2 -8.58,-10.56 -8.38,-19.04zm10.94 -47.29c0,10.3 2.05,17.83 6.15,22.56 4.13,4.74 9.27,7.11 15.44,7.11 6.15,0 11.29,-2.35 15.47,-7.06 4.15,-4.71 6.23,-12.1 6.23,-22.18 0,-9.62 -2.15,-16.89 -6.43,-21.77 -4.28,-4.89 -9.44,-7.32 -15.47,-7.32 -5.95,0 -10.99,2.4 -15.17,7.22 -4.15,4.81 -6.23,11.95 -6.23,21.44z"/>
   <polygon id="12" class="fil1" points="1059.66,593.13 1059.66,484.36 1073.02,484.36 1073.02,593.13 "/>
   <path id="13" class="fil1" d="M1088.7 553.71c0,-14.56 4.05,-25.34 12.18,-32.36 6.76,-5.83 15.04,-8.73 24.79,-8.73 10.81,0 19.67,3.55 26.56,10.63 6.86,7.06 10.3,16.86 10.3,29.34 0,10.13 -1.52,18.08 -4.56,23.88 -3.04,5.8 -7.47,10.3 -13.29,13.52 -5.8,3.21 -12.15,4.81 -19.02,4.81 -11.04,0 -19.95,-3.52 -26.76,-10.58 -6.81,-7.06 -10.2,-17.24 -10.2,-30.51zm13.67 0.02c0,10.08 2.2,17.62 6.61,22.61 4.43,5.01 9.97,7.52 16.68,7.52 6.63,0 12.15,-2.51 16.59,-7.54 4.4,-5.04 6.61,-12.71 6.61,-23.01 0,-9.72 -2.23,-17.09 -6.66,-22.08 -4.43,-5.01 -9.95,-7.52 -16.53,-7.52 -6.71,0 -12.25,2.48 -16.68,7.47 -4.4,4.99 -6.61,12.51 -6.61,22.56z"/>
   <path id="14" class="fil1" d="M1178.04 593.13l0 -78.84 12 0 0 12.08c3.07,-5.6 5.9,-9.29 8.51,-11.06 2.61,-1.8 5.47,-2.68 8.58,-2.68 4.5,0 9.09,1.42 13.75,4.23l-4.76 12.33c-3.24,-1.82 -6.48,-2.73 -9.72,-2.73 -2.91,0 -5.52,0.89 -7.82,2.63 -2.3,1.75 -3.95,4.18 -4.94,7.29 -1.49,4.73 -2.23,9.92 -2.23,15.57l0 41.19 -13.37 0z"/>
   <path id="15" class="fil1" d="M1280.27 593.13l0 -11.72c-6.13,8.94 -14.43,13.39 -24.94,13.39 -4.63,0 -8.96,-0.88 -12.99,-2.66 -4.03,-1.8 -7.01,-4.03 -8.96,-6.71 -1.95,-2.71 -3.31,-6 -4.1,-9.9 -0.53,-2.63 -0.81,-6.78 -0.81,-12.45l0 -48.79 13.37 0 0 43.62c0,6.96 0.28,11.67 0.81,14.08 0.84,3.52 2.61,6.25 5.34,8.25 2.71,2 6.05,3.01 10.05,3.01 4,0 7.75,-1.01 11.24,-3.06 3.49,-2.05 5.98,-4.86 7.44,-8.38 1.44,-3.52 2.18,-8.66 2.18,-15.37l0 -42.15 13.37 0 0 78.84 -12 0z"/>
   <polygon id="16" class="fil1" points="1313.31,593.13 1313.31,484.36 1326.68,484.36 1326.68,546.32 1358.28,514.29 1375.54,514.29 1345.47,543.58 1378.58,593.13 1362.12,593.13 1335.95,552.85 1326.68,561.86 1326.68,593.13 "/>
   <path id="17" class="fil1" d="M1389.22 499.56l0 -15.19 13.37 0 0 15.19 -13.37 0zm0 93.57l0 -78.84 13.37 0 0 78.84 -13.37 0z"/>
   <polygon id="18" class="fil1" points="1417.65,560.47 1417.65,547.1 1458.97,547.1 1458.97,560.47 "/>
   <path id="19" class="fil1" d="M1525.04 564.27l13.06 1.82c-1.44,8.99 -5.09,16 -10.99,21.09 -5.9,5.09 -13.16,7.62 -21.75,7.62 -10.76,0 -19.42,-3.52 -25.95,-10.56 -6.56,-7.04 -9.82,-17.12 -9.82,-30.23 0,-8.51 1.42,-15.93 4.23,-22.31 2.81,-6.35 7.09,-11.14 12.86,-14.3 5.75,-3.19 12,-4.78 18.79,-4.78 8.53,0 15.55,2.15 20.96,6.48 5.44,4.33 8.94,10.48 10.45,18.43l-12.91 1.97c-1.24,-5.29 -3.42,-9.27 -6.58,-11.95 -3.14,-2.66 -6.94,-4 -11.39,-4 -6.74,0 -12.21,2.4 -16.43,7.22 -4.2,4.84 -6.3,12.43 -6.3,22.86 0,10.58 2.03,18.26 6.08,23.04 4.08,4.78 9.37,7.19 15.87,7.19 5.27,0 9.65,-1.59 13.14,-4.81 3.52,-3.19 5.75,-8.13 6.69,-14.79z"/>
   <polygon id="20" class="fil1" points="1549.2,593.13 1549.2,484.36 1562.56,484.36 1562.56,593.13 "/>
   <path id="21" class="fil1" d="M1583.25 499.56l0 -15.19 13.37 0 0 15.19 -13.37 0zm0 93.57l0 -78.84 13.37 0 0 78.84 -13.37 0z"/>
   <g>
    <circle class="fil2" cx="168.35" cy="129.35" r="53.95"/>
    <circle class="fil3" cx="323.87" cy="129.35" r="53.95"/>
    <circle class="fil4" cx="479.39" cy="129.35" r="53.95"/>
   </g>
  </g>
 </g>
</svg>
