<?xml version="1.0" encoding="UTF-8"?>
<!DOCTYPE svg PUBLIC "-//W3C//DTD SVG 1.1//EN" "http://www.w3.org/Graphics/SVG/1.1/DTD/svg11.dtd">
<!-- Creator: CorelDRAW 2020 (64-Bit Evaluation Version) -->
<svg xmlns="http://www.w3.org/2000/svg" xml:space="preserve" width="0.9"  version="1.1" style="shape-rendering:geometricPrecision; text-rendering:geometricPrecision; image-rendering:optimizeQuality; fill-rule:evenodd; clip-rule:evenodd"
viewBox="0 0 1295.17 1459.41"
 xmlns:xlink="http://www.w3.org/1999/xlink"
 xmlns:xodm="http://www.corel.com/coreldraw/odm/2003">
 <defs>
  <style type="text/css">
   <![CDATA[
    .fil0 {fill:#539E43;fill-rule:nonzero}
   ]]>
  </style>
 </defs>
 <g id="Layer_x0020_1">
  <metadata id="CorelCorpID_0Corel-Layer"/>
  <path class="fil0" d="M647.58 1459.41c-20.11,0 -38.88,-5.36 -56.31,-14.75l-178.32 -105.92c-26.81,-14.75 -13.41,-20.11 -5.36,-22.79 36.2,-12.07 42.9,-14.75 80.44,-36.2 4.02,-2.68 9.39,-1.34 13.41,1.34l136.76 81.79c5.36,2.68 12.07,2.68 16.09,0l534.96 -309.71c5.37,-2.69 8.05,-8.05 8.05,-14.75l0 -618.09c0,-6.7 -2.68,-12.07 -8.05,-14.75l-534.96 -308.37c-5.37,-2.68 -12.07,-2.68 -16.09,0l-534.96 308.37c-5.37,2.68 -8.05,9.39 -8.05,14.75l0 618.09c0,5.36 2.68,12.06 8.05,14.75l146.14 84.46c79.1,40.22 128.71,-6.7 128.71,-53.63l0 -610.04c0,-8.04 6.7,-16.09 16.09,-16.09l68.38 0c8.04,0 16.09,6.7 16.09,16.09l0 610.04c0,105.92 -57.65,167.59 -158.21,167.59 -30.84,0 -54.97,0 -123.35,-33.52l-140.78 -80.44c-34.86,-20.11 -56.31,-57.65 -56.31,-97.87l0 -618.09c0,-40.22 21.45,-77.76 56.31,-97.87l534.96 -309.71c33.52,-18.77 79.1,-18.77 112.62,0l534.96 309.71c34.86,20.11 56.31,57.65 56.31,97.87l0 618.09c0,40.22 -21.45,77.76 -56.31,97.87l-534.96 309.72c-17.43,8.04 -37.54,12.06 -56.31,12.06l0 0zm164.91 -425.02c-234.63,0 -282.9,-107.26 -282.9,-198.43 0,-8.05 6.7,-16.09 16.09,-16.09l69.72 0c8.04,0 14.75,5.36 14.75,13.41 10.72,71.06 41.56,105.92 183.68,105.92 112.62,0 160.89,-25.47 160.89,-85.81 0,-34.86 -13.41,-60.33 -189.04,-77.76 -146.14,-14.75 -237.31,-46.93 -237.31,-163.57 0,-108.6 91.17,-172.96 244.02,-172.96 171.61,0 256.08,59 266.81,187.71 0,4.02 -1.34,8.04 -4.02,12.06 -2.68,2.68 -6.7,5.37 -10.72,5.37l-69.72 0c-6.7,0 -13.41,-5.37 -14.75,-12.07 -16.09,-73.74 -57.65,-97.87 -167.59,-97.87 -123.35,0 -138.1,42.9 -138.1,75.08 0,38.88 17.43,50.95 183.68,72.4 164.91,21.45 242.68,52.29 242.68,167.59 -1.34,117.99 -97.88,185.02 -268.15,185.02l0 0z"/>
 </g>
</svg>
