<?xml version="1.0" encoding="UTF-8"?>
<!DOCTYPE svg PUBLIC "-//W3C//DTD SVG 1.1//EN" "http://www.w3.org/Graphics/SVG/1.1/DTD/svg11.dtd">
<!-- Creator: CorelDRAW 2020 (64-Bit Evaluation Version) -->
<svg xmlns="http://www.w3.org/2000/svg" xml:space="preserve" width="0.317457in" height="0.317457in" version="1.1" style="shape-rendering:geometricPrecision; text-rendering:geometricPrecision; image-rendering:optimizeQuality; fill-rule:evenodd; clip-rule:evenodd"
viewBox="0 0 2824.74 2824.74"
 xmlns:xlink="http://www.w3.org/1999/xlink"
 xmlns:xodm="http://www.corel.com/coreldraw/odm/2003">
 <defs>
  <style type="text/css">
   <![CDATA[
    .str0 {stroke:white;stroke-width:61.8;stroke-miterlimit:2.61313}
    .fil0 {fill:none}
    .fil2 {fill:#FEFEFE}
    .fil1 {fill:black}
    .fil3 {fill:white}
   ]]>
  </style>
 </defs>
 <g id="Layer_x0020_1">
  <metadata id="CorelCorpID_0Corel-Layer"/>
  <g id="_2921706677264">
   <circle class="fil0 str0" cx="1412.37" cy="1412.37" r="1381.47"/>
   <rect class="fil1 str0" x="1377.97" y="802.53" width="59.8" height="1430.74"/>
   <path class="fil2" d="M627.98 997.42l1568.79 0c39.24,0 71.32,32.09 71.32,71.32l0 299c0,39.24 -32.09,71.32 -71.32,71.32l-1568.79 0c-39.24,0 -71.32,-32.09 -71.32,-71.32l0 -299c0,-39.24 32.09,-71.32 71.32,-71.32zm1369.84 154.14c36.82,0 66.7,29.85 66.7,66.7 0,36.85 -29.88,66.7 -66.7,66.7 -36.85,0 -66.7,-29.85 -66.7,-66.7 0,-36.85 29.85,-66.7 66.7,-66.7zm-1308.85 -29.95l94.27 0c5.71,0 10.37,4.66 10.37,10.37l0 9.18c0,5.75 -4.66,10.4 -10.37,10.4l-94.27 0c-5.71,0 -10.37,-4.66 -10.37,-10.4l0 -9.18c0,-5.71 4.66,-10.37 10.37,-10.37zm176.49 0l94.27 0c5.75,0 10.4,4.66 10.4,10.37l0 9.18c0,5.75 -4.66,10.4 -10.4,10.4l-94.27 0c-5.68,0 -10.33,-4.66 -10.33,-10.4l0 -9.18c0,-5.71 4.66,-10.37 10.33,-10.37zm176.52 0l94.27 0c5.75,0 10.4,4.66 10.4,10.37l0 9.18c0,5.75 -4.66,10.4 -10.4,10.4l-94.27 0c-5.68,0 -10.33,-4.66 -10.33,-10.4l0 -9.18c0,-5.71 4.66,-10.37 10.33,-10.37zm-353.01 77.07l94.27 0c5.71,0 10.37,4.66 10.37,10.37l0 9.18c0,5.71 -4.66,10.37 -10.37,10.37l-94.27 0c-5.71,0 -10.37,-4.66 -10.37,-10.37l0 -9.18c0,-5.71 4.66,-10.37 10.37,-10.37zm176.49 0l94.27 0c5.75,0 10.4,4.66 10.4,10.37l0 9.18c0,5.71 -4.66,10.37 -10.4,10.37l-94.27 0c-5.68,0 -10.33,-4.66 -10.33,-10.37l0 -9.18c0,-5.71 4.66,-10.37 10.33,-10.37zm176.52 0l94.27 0c5.75,0 10.4,4.66 10.4,10.37l0 9.18c0,5.71 -4.66,10.37 -10.4,10.37l-94.27 0c-5.68,0 -10.33,-4.66 -10.33,-10.37l0 -9.18c0,-5.71 4.66,-10.37 10.33,-10.37zm-353.01 77.03l94.27 0c5.71,0 10.37,4.66 10.37,10.37l0 9.18c0,5.71 -4.66,10.37 -10.37,10.37l-94.27 0c-5.71,0 -10.37,-4.66 -10.37,-10.37l0 -9.18c0,-5.71 4.66,-10.37 10.37,-10.37zm176.49 0l94.27 0c5.75,0 10.4,4.66 10.4,10.37l0 9.18c0,5.71 -4.66,10.37 -10.4,10.37l-94.27 0c-5.68,0 -10.33,-4.66 -10.33,-10.37l0 -9.18c0,-5.71 4.66,-10.37 10.33,-10.37zm176.52 0l94.27 0c5.75,0 10.4,4.66 10.4,10.37l0 9.18c0,5.71 -4.66,10.37 -10.4,10.37l-94.27 0c-5.68,0 -10.33,-4.66 -10.33,-10.37l0 -9.18c0,-5.71 4.66,-10.37 10.33,-10.37z"/>
   <path class="fil2" d="M627.98 1556.42l1568.79 0c39.24,0 71.32,32.09 71.32,71.32l0 299c0,39.24 -32.09,71.32 -71.32,71.32l-1568.79 0c-39.24,0 -71.32,-32.09 -71.32,-71.32l0 -299c0,-39.24 32.09,-71.32 71.32,-71.32zm1369.84 154.14c36.82,0 66.7,29.85 66.7,66.74 0,36.85 -29.88,66.67 -66.7,66.67 -36.85,0 -66.7,-29.81 -66.7,-66.67 0,-36.89 29.85,-66.74 66.7,-66.74zm-1308.85 -29.92l94.27 0c5.71,0 10.37,4.66 10.37,10.37l0 9.18c0,5.71 -4.66,10.37 -10.37,10.37l-94.27 0c-5.71,0 -10.37,-4.66 -10.37,-10.37l0 -9.18c0,-5.71 4.66,-10.37 10.37,-10.37zm176.49 0l94.27 0c5.75,0 10.4,4.66 10.4,10.37l0 9.18c0,5.71 -4.66,10.37 -10.4,10.37l-94.27 0c-5.68,0 -10.33,-4.66 -10.33,-10.37l0 -9.18c0,-5.71 4.66,-10.37 10.33,-10.37zm176.52 0l94.27 0c5.75,0 10.4,4.66 10.4,10.37l0 9.18c0,5.71 -4.66,10.37 -10.4,10.37l-94.27 0c-5.68,0 -10.33,-4.66 -10.33,-10.37l0 -9.18c0,-5.71 4.66,-10.37 10.33,-10.37zm-353.01 77.03l94.27 0c5.71,0 10.37,4.66 10.37,10.37l0 9.18c0,5.71 -4.66,10.37 -10.37,10.37l-94.27 0c-5.71,0 -10.37,-4.66 -10.37,-10.37l0 -9.18c0,-5.71 4.66,-10.37 10.37,-10.37zm176.49 0l94.27 0c5.75,0 10.4,4.66 10.4,10.37l0 9.18c0,5.71 -4.66,10.37 -10.4,10.37l-94.27 0c-5.68,0 -10.33,-4.66 -10.33,-10.37l0 -9.18c0,-5.71 4.66,-10.37 10.33,-10.37zm176.52 0l94.27 0c5.75,0 10.4,4.66 10.4,10.37l0 9.18c0,5.71 -4.66,10.37 -10.4,10.37l-94.27 0c-5.68,0 -10.33,-4.66 -10.33,-10.37l0 -9.18c0,-5.71 4.66,-10.37 10.33,-10.37zm-353.01 77.07l94.27 0c5.71,0 10.37,4.66 10.37,10.37l0 9.18c0,5.71 -4.66,10.37 -10.37,10.37l-94.27 0c-5.71,0 -10.37,-4.66 -10.37,-10.37l0 -9.18c0,-5.71 4.66,-10.37 10.37,-10.37zm176.49 0l94.27 0c5.75,0 10.4,4.66 10.4,10.37l0 9.18c0,5.71 -4.66,10.37 -10.4,10.37l-94.27 0c-5.68,0 -10.33,-4.66 -10.33,-10.37l0 -9.18c0,-5.71 4.66,-10.37 10.33,-10.37zm176.52 0l94.27 0c5.75,0 10.4,4.66 10.4,10.37l0 9.18c0,5.71 -4.66,10.37 -10.4,10.37l-94.27 0c-5.68,0 -10.33,-4.66 -10.33,-10.37l0 -9.18c0,-5.71 4.66,-10.37 10.33,-10.37z"/>
   <path class="fil2" d="M584.99 416.39l1568.79 0c39.24,0 71.32,32.09 71.32,71.32l0 299c0,39.24 -32.09,71.32 -71.32,71.32l-1568.79 0c-39.24,0 -71.32,-32.09 -71.32,-71.32l0 -299c0,-39.24 32.09,-71.32 71.32,-71.32zm1412.83 180.83c36.82,0 66.7,29.85 66.7,66.7 0,36.85 -29.88,66.7 -66.7,66.7 -36.85,0 -66.7,-29.85 -66.7,-66.7 0,-36.85 29.85,-66.7 66.7,-66.7zm-1351.84 -56.65l94.27 0c5.71,0 10.37,4.66 10.37,10.37l0 9.18c0,5.71 -4.66,10.37 -10.37,10.37l-94.27 0c-5.71,0 -10.37,-4.66 -10.37,-10.37l0 -9.18c0,-5.71 4.66,-10.37 10.37,-10.37zm176.49 0l94.27 0c5.75,0 10.4,4.66 10.4,10.37l0 9.18c0,5.71 -4.66,10.37 -10.4,10.37l-94.27 0c-5.68,0 -10.33,-4.66 -10.33,-10.37l0 -9.18c0,-5.71 4.66,-10.37 10.33,-10.37zm176.52 0l94.27 0c5.75,0 10.4,4.66 10.4,10.37l0 9.18c0,5.71 -4.66,10.37 -10.4,10.37l-94.27 0c-5.68,0 -10.33,-4.66 -10.33,-10.37l0 -9.18c0,-5.71 4.66,-10.37 10.33,-10.37zm-353.01 77.07l94.27 0c5.71,0 10.37,4.66 10.37,10.37l0 9.18c0,5.71 -4.66,10.37 -10.37,10.37l-94.27 0c-5.71,0 -10.37,-4.66 -10.37,-10.37l0 -9.18c0,-5.71 4.66,-10.37 10.37,-10.37zm176.49 0l94.27 0c5.75,0 10.4,4.66 10.4,10.37l0 9.18c0,5.71 -4.66,10.37 -10.4,10.37l-94.27 0c-5.68,0 -10.33,-4.66 -10.33,-10.37l0 -9.18c0,-5.71 4.66,-10.37 10.33,-10.37zm176.52 0l94.27 0c5.75,0 10.4,4.66 10.4,10.37l0 9.18c0,5.71 -4.66,10.37 -10.4,10.37l-94.27 0c-5.68,0 -10.33,-4.66 -10.33,-10.37l0 -9.18c0,-5.71 4.66,-10.37 10.33,-10.37zm-353.01 77.03l94.27 0c5.71,0 10.37,4.66 10.37,10.37l0 9.18c0,5.71 -4.66,10.37 -10.37,10.37l-94.27 0c-5.71,0 -10.37,-4.66 -10.37,-10.37l0 -9.18c0,-5.71 4.66,-10.37 10.37,-10.37zm176.49 0l94.27 0c5.75,0 10.4,4.66 10.4,10.37l0 9.18c0,5.71 -4.66,10.37 -10.4,10.37l-94.27 0c-5.68,0 -10.33,-4.66 -10.33,-10.37l0 -9.18c0,-5.71 4.66,-10.37 10.33,-10.37zm176.52 0l94.27 0c5.75,0 10.4,4.66 10.4,10.37l0 9.18c0,5.71 -4.66,10.37 -10.4,10.37l-94.27 0c-5.68,0 -10.33,-4.66 -10.33,-10.37l0 -9.18c0,-5.71 4.66,-10.37 10.33,-10.37z"/>
   <rect class="fil1 str0" x="665.44" y="2276.5" width="1483.77" height="56.16" rx="18.74" ry="18.74"/>
   <circle class="fil3 str0" cx="1407.32" cy="2304.58" r="77.09"/>
  </g>
 </g>
</svg>
